M48
; DRILL file {KiCad 9.0.5} date 2025-11-18T20:42:19-0800
; FORMAT={-:-/ absolute / metric / decimal}
; #@! TF.CreationDate,2025-11-18T20:42:19-08:00
; #@! TF.GenerationSoftware,Kicad,Pcbnew,9.0.5
; #@! TF.FileFunction,MixedPlating,1,2
FMAT,2
METRIC
; #@! TA.AperFunction,Plated,PTH,ComponentDrill
T1C1.000
%
G90
G05
T1
X119.563Y-66.025
X119.563Y-68.565
X119.563Y-71.105
X119.563Y-73.645
X119.563Y-76.185
X119.563Y-78.725
X119.563Y-81.265
X119.563Y-83.805
X119.563Y-86.345
X119.563Y-88.885
X119.563Y-91.425
X119.563Y-93.965
X119.563Y-96.505
X119.563Y-99.045
X119.563Y-101.585
X119.563Y-104.125
X119.563Y-106.665
X119.563Y-109.205
X119.563Y-111.745
X119.563Y-114.285
X134.803Y-66.025
X134.803Y-68.565
X134.803Y-71.105
X134.803Y-73.645
X134.803Y-76.185
X134.803Y-78.725
X134.803Y-81.265
X134.803Y-83.805
X134.803Y-86.345
X134.803Y-88.885
X134.803Y-91.425
X134.803Y-93.965
X134.803Y-96.505
X134.803Y-99.045
X134.803Y-101.585
X134.803Y-104.125
X134.803Y-106.665
X134.803Y-109.205
X134.803Y-111.745
X134.803Y-114.285
X139.7Y-63.5
X139.7Y-66.04
X139.7Y-68.58
X139.7Y-71.12
X142.24Y-96.52
X144.78Y-76.2
X144.78Y-96.52
X147.32Y-76.2
X147.32Y-96.52
X147.955Y-69.215
X149.86Y-76.2
X149.86Y-96.52
X150.495Y-69.215
X152.4Y-76.2
X152.4Y-96.52
X153.035Y-69.215
X154.94Y-76.2
X154.94Y-96.52
X156.845Y-69.215
X157.48Y-76.2
X157.48Y-96.52
X159.385Y-69.215
X160.02Y-76.2
X160.02Y-96.52
X161.925Y-69.215
X161.925Y-72.39
X162.56Y-96.52
X164.465Y-72.39
X167.64Y-91.44
X168.27Y-69.21
X168.27Y-71.75
X170.18Y-91.44
X170.18Y-111.76
X170.81Y-69.21
X170.81Y-71.75
X172.72Y-91.44
X172.72Y-96.52
X172.72Y-111.76
X175.26Y-91.44
X175.26Y-96.52
X175.26Y-111.76
X177.8Y-76.835
X177.8Y-79.375
X177.8Y-81.915
X177.8Y-84.455
X177.8Y-91.44
X177.8Y-96.52
X177.8Y-111.76
X180.34Y-63.5
X180.34Y-66.04
X180.34Y-68.58
X180.34Y-71.12
X180.34Y-91.44
X180.34Y-96.52
X180.34Y-111.76
X182.88Y-91.44
X182.88Y-111.76
M30
